<svg width="96" height="96" viewBox="0 0 96 96" fill="none" xmlns="http://www.w3.org/2000/svg">
<path d="M59.88 23.6801C59.6111 22.6958 58.9641 21.8577 58.0801 21.3483C57.196 20.8388 56.1464 20.6993 55.16 20.9601L41.56 24.6001L23.8 8.12012L18.88 9.44012L29.52 27.8001L16.76 31.2001L11.72 27.2801L8 28.2801L14.64 39.8001L57.12 28.4401C59.2 27.8401 60.4 25.7201 59.88 23.6801ZM84 40.0001L80 48.0001H60L56 40.0001L60 36.0001H68V28.0001H72V36.0001H80L84 40.0001ZM88 80.0001V88.0001H8V80.0001H60V52.0001H80V80.0001H88Z" fill="white"/>
</svg>
