<svg width="78" height="78" viewBox="0 0 78 78" fill="none" xmlns="http://www.w3.org/2000/svg">
<path d="M67.509 33.0038L63.063 19.6658C62.418 17.7238 61.1775 16.0345 59.5176 14.8379C57.8578 13.6413 55.863 12.9982 53.8168 13H45.5V6.5H32.5V13H24.1833C22.137 12.9982 20.1422 13.6413 18.4824 14.8379C16.8225 16.0345 15.582 17.7238 14.937 19.6658L10.491 33.0038C9.30872 33.4985 8.29907 34.3316 7.58897 35.3985C6.87886 36.4654 6.5 37.7184 6.5 39V55.25C6.5 57.6485 7.813 59.722 9.75 60.8498V68.25C9.75 69.112 10.0924 69.9386 10.7019 70.5481C11.3114 71.1576 12.138 71.5 13 71.5H16.25C17.112 71.5 17.9386 71.1576 18.5481 70.5481C19.1576 69.9386 19.5 69.112 19.5 68.25V61.75H58.5V68.25C58.5 69.112 58.8424 69.9386 59.4519 70.5481C60.0614 71.1576 60.8881 71.5 61.75 71.5H65C65.862 71.5 66.6886 71.1576 67.2981 70.5481C67.9076 69.9386 68.25 69.112 68.25 68.25V60.8498C69.236 60.2843 70.0556 59.4689 70.6262 58.4858C71.1967 57.5028 71.4981 56.3867 71.5 55.25V39C71.5 37.7184 71.1211 36.4654 70.411 35.3985C69.7009 34.3316 68.6913 33.4985 67.509 33.0038ZM24.1833 19.5H53.8135C55.2143 19.5 56.4558 20.3905 56.8978 21.723L60.4923 32.5H17.5078L21.099 21.723C21.3146 21.0756 21.7286 20.5125 22.2822 20.1135C22.8357 19.7145 23.5009 19.4998 24.1833 19.5ZM17.875 52C17.2346 51.9998 16.6005 51.8734 16.0089 51.6282C15.4173 51.3829 14.8799 51.0235 14.4272 50.5705C13.9745 50.1175 13.6155 49.5798 13.3706 48.9881C13.1257 48.3963 12.9998 47.7622 13 47.1218C13.0002 46.4813 13.1266 45.8473 13.3718 45.2557C13.6171 44.6641 13.9765 44.1266 14.4295 43.6739C14.8825 43.2212 15.4202 42.8622 16.0119 42.6173C16.6037 42.3725 17.2378 42.2465 17.8783 42.2468C19.1716 42.2472 20.4118 42.7614 21.3261 43.6762C22.2403 44.5911 22.7537 45.8316 22.7533 47.125C22.7528 48.4184 22.2386 49.6586 21.3238 50.5728C20.4089 51.4871 19.1684 52.0004 17.875 52ZM60.125 52C59.4846 51.9998 58.8505 51.8734 58.2589 51.6282C57.6674 51.3829 57.1299 51.0235 56.6772 50.5705C56.2245 50.1175 55.8655 49.5798 55.6206 48.9881C55.3757 48.3963 55.2498 47.7622 55.25 47.1218C55.2502 46.4813 55.3766 45.8473 55.6218 45.2557C55.8671 44.6641 56.2265 44.1266 56.6795 43.6739C57.1325 43.2212 57.6702 42.8622 58.2619 42.6173C58.8537 42.3725 59.4879 42.2465 60.1283 42.2468C61.4216 42.2472 62.6618 42.7614 63.5761 43.6762C64.4903 44.5911 65.0037 45.8316 65.0033 47.125C65.0028 48.4184 64.4886 49.6586 63.5738 50.5728C62.6589 51.4871 61.4184 52.0004 60.125 52Z" fill="white"/>
</svg>
