<svg width="101" height="101" viewBox="0 0 101 101" fill="none" xmlns="http://www.w3.org/2000/svg">
<path d="M50.9209 88.375C49.7286 88.375 48.7298 87.971 47.9246 87.163C47.1194 86.355 46.7154 85.3562 46.7126 84.1667C46.7126 83.6757 46.8178 83.1665 47.0282 82.6391C47.2386 82.1116 47.5542 81.6389 47.9751 81.2208L67.4386 61.7573L64.3876 58.7063L45.0292 78.1698C44.6084 78.5907 44.1525 78.9063 43.6615 79.1167C43.1706 79.3271 42.6445 79.4323 42.0834 79.4323C40.8911 79.4323 39.8909 79.0297 39.0829 78.2245C38.2749 77.4193 37.8723 76.4191 37.8751 75.224C37.8751 74.5226 37.9803 73.9432 38.1907 73.4859C38.4011 73.0286 38.6817 72.626 39.0324 72.2781L58.4959 52.8146L55.5501 49.8688L36.0865 69.2271C35.6657 69.6479 35.2098 69.9636 34.7188 70.174C34.2279 70.3844 33.6667 70.4896 33.0355 70.4896C31.9133 70.4896 30.9313 70.0688 30.0897 69.2271C29.248 68.3854 28.8272 67.4035 28.8272 66.2813C28.8272 65.7202 28.9324 65.1941 29.1428 64.7031C29.3532 64.2122 29.6688 63.7563 30.0897 63.3354L49.5532 43.8719L46.5022 40.9261L27.1438 60.3896C26.7931 60.7403 26.3723 61.0209 25.8813 61.2313C25.3904 61.4417 24.7942 61.5469 24.0928 61.5469C22.9004 61.5469 21.9002 61.1429 21.0922 60.3349C20.2842 59.5269 19.8817 58.5281 19.8845 57.3386C19.8845 56.7775 19.9897 56.2514 20.2001 55.7604C20.4105 55.2695 20.7261 54.8136 21.147 54.3927L44.6084 30.9313L60.3897 46.8177C61.1612 47.5893 62.073 48.2037 63.1251 48.661C64.1772 49.1183 65.2293 49.3455 66.2813 49.3427C68.5258 49.3427 70.4897 48.553 72.173 46.9734C73.8563 45.3939 74.698 43.3781 74.698 40.9261C74.698 39.9441 74.5227 38.9271 74.172 37.875C73.8213 36.8229 73.19 35.841 72.2782 34.9292L53.4459 16.0969C54.6383 14.9747 55.9709 14.1148 57.4438 13.5172C58.9167 12.9196 60.3897 12.6222 61.8626 12.625C63.6862 12.625 65.3695 12.9238 66.9126 13.5214C68.4556 14.119 69.8584 15.0476 71.1209 16.3073L88.9011 34.1927C90.1636 35.4552 91.0937 36.858 91.6913 38.4011C92.2888 39.9441 92.5862 41.7327 92.5834 43.7667C92.5834 45.1695 92.2678 46.5891 91.6365 48.0255C91.0053 49.462 90.0935 50.7778 88.9011 51.9729L53.8667 87.1125C53.3056 87.6736 52.8147 88.0243 52.3938 88.1646C51.973 88.3049 51.482 88.375 50.9209 88.375ZM14.8345 54.7084L12.099 51.9729C10.9067 50.8507 9.99487 49.5181 9.36362 47.975C8.73237 46.432 8.41675 44.8188 8.41675 43.1354C8.41675 41.3118 8.76744 39.6285 9.46883 38.0854C10.1702 36.5424 11.047 35.2448 12.099 34.1927L29.8792 16.3073C31.0015 15.1851 32.3341 14.2901 33.8772 13.6224C35.4202 12.9547 36.9282 12.6222 38.4011 12.625C40.2949 12.625 41.9782 12.8887 43.4511 13.4162C44.924 13.9436 46.3619 14.9073 47.7647 16.3073L69.3324 37.875C69.7532 38.2959 70.0688 38.7518 70.2793 39.2427C70.4897 39.7337 70.5949 40.2597 70.5949 40.8209C70.5949 41.9431 70.174 42.925 69.3324 43.7667C68.4907 44.6084 67.5088 45.0292 66.3865 45.0292C65.7553 45.0292 65.2292 44.9408 64.8084 44.7641C64.3876 44.5873 63.9317 44.2549 63.4407 43.7667L44.5032 25.0396L14.8345 54.7084Z" fill="white"/>
</svg>
