<svg width="97" height="81" viewBox="0 0 97 81" fill="none" xmlns="http://www.w3.org/2000/svg">
<g clip-path="url(#clip0_71_673)">
<path d="M94.2274 36.2595H89.1157L77.6839 16.1394C77.1814 15.2631 76.4581 14.5357 75.5872 14.0305C74.7163 13.5254 73.7285 13.2604 72.7233 13.2622H24.2647C23.2596 13.2604 22.2717 13.5254 21.4008 14.0305C20.5299 14.5357 19.8067 15.2631 19.3041 16.1394L7.87232 36.28H2.77292C2.12322 36.28 1.50014 36.5399 1.04073 37.0024C0.581332 37.4649 0.323242 38.0921 0.323242 38.7462C0.323242 39.4003 0.581332 40.0276 1.04073 40.4901C1.50014 40.9526 2.12322 41.2124 2.77292 41.2124H6.8557V74.9171C6.8557 76.4433 7.45791 77.9069 8.52985 78.9861C9.60179 80.0653 11.0557 80.6715 12.5716 80.6715H22.3703C23.8862 80.6715 25.3401 80.0653 26.4121 78.9861C27.484 77.9069 28.0862 76.4433 28.0862 74.9171V67.4979H68.9141V74.8965C68.9141 76.4227 69.5163 77.8864 70.5882 78.9655C71.6602 80.0447 73.114 80.651 74.63 80.651H84.4287C85.9446 80.651 87.3985 80.0447 88.4704 78.9655C89.5424 77.8864 90.1446 76.4227 90.1446 74.8965V41.1919H94.2274C94.8771 41.1919 95.5002 40.932 95.9596 40.4695C96.419 40.007 96.677 39.3797 96.677 38.7257C96.677 38.0716 96.419 37.4443 95.9596 36.9818C95.5002 36.5193 94.8771 36.2595 94.2274 36.2595ZM23.5584 18.5851C23.63 18.4602 23.7329 18.3565 23.8569 18.2844C23.9809 18.2123 24.1215 18.1742 24.2647 18.174H72.7356C72.8788 18.1742 73.0194 18.2123 73.1434 18.2844C73.2673 18.3565 73.3703 18.4602 73.4419 18.5851L83.4733 36.2595H13.527L23.5584 18.5851ZM23.1869 74.8965C23.1869 75.1146 23.1008 75.3236 22.9477 75.4778C22.7946 75.632 22.5869 75.7186 22.3703 75.7186H12.5716C12.355 75.7186 12.1473 75.632 11.9942 75.4778C11.8411 75.3236 11.755 75.1146 11.755 74.8965V67.4979H23.1869V74.8965ZM84.4287 75.7186H74.63C74.4134 75.7186 74.2057 75.632 74.0526 75.4778C73.8995 75.3236 73.8134 75.1146 73.8134 74.8965V67.4979H85.2452V74.8965C85.2452 75.1146 85.1592 75.3236 85.0061 75.4778C84.8529 75.632 84.6452 75.7186 84.4287 75.7186ZM85.2452 62.5656H11.755V41.1919H85.2452V62.5656ZM19.9206 51.8787C19.9206 51.2246 20.1787 50.5973 20.6381 50.1348C21.0975 49.6723 21.7206 49.4125 22.3703 49.4125H28.9028C29.5525 49.4125 30.1755 49.6723 30.6349 50.1348C31.0943 50.5973 31.3524 51.2246 31.3524 51.8787C31.3524 52.5328 31.0943 53.1601 30.6349 53.6226C30.1755 54.0851 29.5525 54.3449 28.9028 54.3449H22.3703C21.7206 54.3449 21.0975 54.0851 20.6381 53.6226C20.1787 53.1601 19.9206 52.5328 19.9206 51.8787ZM65.6479 51.8787C65.6479 51.2246 65.9059 50.5973 66.3653 50.1348C66.8247 49.6723 67.4478 49.4125 68.0975 49.4125H74.63C75.2797 49.4125 75.9028 49.6723 76.3622 50.1348C76.8216 50.5973 77.0797 51.2246 77.0797 51.8787C77.0797 52.5328 76.8216 53.1601 76.3622 53.6226C75.9028 54.0851 75.2797 54.3449 74.63 54.3449H68.0975C67.4478 54.3449 66.8247 54.0851 66.3653 53.6226C65.9059 53.1601 65.6479 52.5328 65.6479 51.8787ZM36.2518 2.55482C36.2518 1.90074 36.5099 1.27346 36.9693 0.810954C37.4287 0.348453 38.0518 0.088623 38.7015 0.088623H58.2988C58.9485 0.088623 59.5716 0.348453 60.031 0.810954C60.4904 1.27346 60.7485 1.90074 60.7485 2.55482C60.7485 3.20889 60.4904 3.83618 60.031 4.29868C59.5716 4.76118 58.9485 5.02101 58.2988 5.02101H38.7015C38.0518 5.02101 37.4287 4.76118 36.9693 4.29868C36.5099 3.83618 36.2518 3.20889 36.2518 2.55482Z" fill="#FF5722"/>
</g>
<defs>
<clipPath id="clip0_71_673">
<rect width="97" height="81" fill="white"/>
</clipPath>
</defs>
</svg>
