<svg width="130" height="48" viewBox="0 0 130 48" fill="none" xmlns="http://www.w3.org/2000/svg">
<mask id="mask0_150_518" style="mask-type:luminance" maskUnits="userSpaceOnUse" x="0" y="0" width="130" height="48">
<path d="M0 0H130V48H0V0Z" fill="white"/>
</mask>
<g mask="url(#mask0_150_518)">
<mask id="mask1_150_518" style="mask-type:luminance" maskUnits="userSpaceOnUse" x="17" y="0" width="96" height="30">
<path d="M17.0859 0.387085H112.189V29.0322H17.0859V0.387085Z" fill="white"/>
</mask>
<g mask="url(#mask1_150_518)">
<path d="M51.8135 0.638745C52.4991 0.526229 53.1868 0.397197 53.8832 0.38739C51.8759 0.700164 49.8899 1.19461 47.9935 1.93423C46.2424 2.6172 44.5953 3.54572 43.1008 4.69242C41.7121 5.74017 40.4686 6.96339 39.1489 8.09474C37.664 9.33862 36.0406 10.406 34.363 11.3644C30.7645 13.4021 26.9184 14.9593 23.0033 16.2573C21.315 16.8096 19.6134 17.32 17.8928 17.7603C17.6387 17.8176 17.3897 17.9064 17.1289 17.9224C18.1096 17.6813 19.0739 17.3711 20.0423 17.0826C24.1446 15.8098 28.1808 14.2764 31.9916 12.2744C34.6811 10.855 37.2601 9.18997 39.5211 7.13836C40.06 6.66765 40.5458 6.13965 41.0919 5.67616C44.1127 3.03565 47.8948 1.35462 51.814 0.638745H51.8135ZM61.3289 0.960806C65.6801 0.673322 70.0472 1.01345 74.357 1.62816C75.4834 1.71539 76.5357 2.15204 77.5967 2.50765C80.9207 3.65758 84.2094 4.92313 87.3974 6.41577C84.6752 6.1701 81.9392 6.08907 79.2063 6.08184C75.9395 6.06739 72.6738 6.16339 69.4117 6.32597C68.635 6.36932 67.8496 6.3941 67.0816 6.25062C66.4716 6.13655 65.8698 5.90223 65.3923 5.49397C64.0941 4.32029 62.8613 3.06558 61.4588 2.01526C61.2164 1.82222 60.9147 1.6901 60.7409 1.42326C60.6739 1.33397 60.6617 1.1879 60.7639 1.11977C60.926 1.00106 61.1356 0.984035 61.3289 0.961325V0.960806Z" fill="#FF5722"/>
<path d="M54.3647 1.75928C55.4743 1.64418 56.613 1.69785 57.6882 2.01889C59.1179 2.43024 60.4084 3.26121 61.4576 4.31463C62.3396 5.19256 63.0565 6.22637 63.6557 7.31695C59.3566 7.49243 55.0571 7.65347 50.758 7.83154C50.1674 6.53502 49.4046 5.30044 48.3983 4.28986C48.2326 4.11334 48.0036 3.97398 47.9299 3.72985C47.9167 3.53785 48.1268 3.45527 48.2674 3.38405C48.9945 3.07644 49.7415 2.82147 50.4942 2.58663C51.7571 2.19953 53.0486 1.88934 54.3647 1.75928ZM45.9507 4.46688C46.2339 4.3265 46.5106 4.12882 46.8368 4.11592C47.0868 4.14224 47.2791 4.32856 47.4672 4.4803C48.0194 4.98198 48.4489 5.60237 48.8559 6.2243C49.0824 6.57837 49.2987 6.93966 49.4981 7.31076C49.5661 7.44599 49.6433 7.61115 49.5753 7.76134C49.4756 7.91566 49.2701 7.8976 49.11 7.90224C47.932 7.88676 46.7529 7.9074 45.5754 7.9425C44.4479 7.99308 43.3174 8.0545 42.2018 8.23772C41.7958 8.30895 41.3842 8.38637 41.0068 8.55876C41.8658 7.07902 43.207 5.94147 44.6816 5.11772C45.0937 4.8803 45.5253 4.67902 45.9507 4.4674V4.46688ZM73.2975 7.06198C75.8734 6.99901 78.4489 6.9314 81.0228 6.81115C83.7997 6.71618 86.5843 6.75592 89.3525 7.0145C91.747 7.22611 94.1373 7.48366 96.52 7.80056C97.7768 7.97088 99.0321 8.15463 100.276 8.40547C102.118 8.76676 103.982 9.13476 105.71 9.89915C106.231 10.1298 106.735 10.3975 107.219 10.7002C106.238 10.3182 105.232 9.99308 104.199 9.79385C103.759 9.70353 103.313 9.65915 102.874 9.57089C102.374 9.5296 101.873 9.57502 101.374 9.56882C99.821 9.58121 98.2636 9.63076 96.723 9.8434C96.5221 9.8754 96.2889 9.91205 96.1637 10.0927C96.0527 10.2702 96.1365 10.4875 96.2163 10.6604C96.7506 11.6101 97.2287 12.5897 97.7247 13.5601C98.0642 14.2439 98.4185 14.9211 98.7473 15.6101C97.3985 13.4424 95.5383 11.6049 93.3826 10.2579C93.0155 10.0264 92.6361 9.81547 92.246 9.62611C91.7137 9.37889 91.138 9.24418 90.5612 9.15127C89.4517 9.00676 88.3575 8.76831 87.2551 8.58457C81.9958 7.66483 76.6634 7.12598 71.3243 7.11772C71.9813 7.07127 72.6394 7.08159 73.298 7.06198H73.2975Z" fill="#FF5722"/>
<path d="M86.4258 10.0049C87.2592 10.1814 88.0988 10.487 88.7384 11.0733C89.1129 11.4071 89.3788 11.8473 89.5013 12.3363C89.5795 12.6563 89.5386 13.015 89.3418 13.2849C89.1045 13.6152 88.7256 13.8062 88.3498 13.9301C88.6939 13.6648 89.0493 13.3654 89.1935 12.9381C89.3331 12.5386 89.2027 12.0983 88.9603 11.7691C88.582 11.2478 88.0441 10.8715 87.5 10.5453C87.154 10.3422 86.7953 10.1619 86.4263 10.0054L86.4258 10.0049ZM102.443 10.0023C102.674 9.96998 102.909 9.96478 103.141 9.98686C104.241 10.2109 105.353 10.4034 106.421 10.7574C106.733 10.8617 107.046 10.9882 107.3 11.2034C107.641 11.4738 107.859 11.8676 107.999 12.2754C108.246 13.0062 108.505 13.735 108.683 14.487C108.755 14.808 108.837 15.1662 108.672 15.4728C108.576 15.67 108.35 15.767 108.14 15.7531C106.041 15.5925 103.934 15.5089 101.829 15.4743C101.29 15.4522 100.732 15.5265 100.213 15.3453C99.6293 15.143 99.2039 14.6563 98.8603 14.1608C98.2973 13.3345 97.7947 12.4679 97.3269 11.5843C97.1822 11.286 97.0467 10.9438 97.131 10.6078C97.1975 10.3621 97.4588 10.2522 97.6904 10.2362C99.2698 10.0798 100.859 10.0813 102.442 10.0023H102.443Z" fill="#FF5722"/>
<path d="M85.1231 10.0576C85.9452 9.991 86.7235 10.3667 87.4117 10.7802C87.8514 11.0501 88.2773 11.368 88.5744 11.7985C88.8162 12.1479 88.9405 12.5918 88.8623 13.0155C88.7488 13.3974 88.4036 13.6607 88.0365 13.7716C87.5676 13.911 87.065 13.8914 86.5895 13.8C85.4646 13.5802 84.4916 12.7559 84.0355 11.7025C83.8939 11.3861 83.8724 10.9882 84.0989 10.7064C84.3566 10.39 84.7023 10.0953 85.1236 10.0576H85.1231ZM90.4908 10.0793C91.3043 9.9399 92.1198 10.2615 92.7809 10.7224C93.2038 11.0145 93.5786 11.3711 93.9247 11.7494C94.2417 12.0787 94.4447 12.5082 94.5562 12.9495C94.6339 13.3046 94.639 13.7164 94.4079 14.0178C94.1349 14.3647 93.6639 14.4772 93.2442 14.4679C92.6801 14.4104 92.1342 14.2341 91.6417 13.9505C91.1492 13.6669 90.7211 13.2823 90.3849 12.8215C90.1439 12.4886 89.9478 12.1248 89.802 11.7396C89.6829 11.3871 89.6507 10.9871 89.798 10.6382C89.9186 10.3513 90.1865 10.135 90.4908 10.0793Z" fill="#FF5722"/>
<path d="M92.3793 10.2031C93.0962 10.5954 93.8125 11.0078 94.4287 11.5538C94.7385 11.8377 95.0366 12.1556 95.2007 12.551C95.3276 12.8462 95.3419 13.2013 95.1956 13.4919C95.0847 13.7309 94.8878 13.912 94.6843 14.0715C94.7904 13.8785 94.8561 13.6654 94.8772 13.4457C94.8983 13.2259 94.8744 13.0041 94.807 12.7941C94.5923 12.1216 94.1025 11.5863 93.5942 11.1213C93.2184 10.7765 92.794 10.4942 92.3793 10.2026V10.2031ZM108.209 11.7407L108.291 11.6963C108.49 11.7391 108.644 11.8909 108.787 12.0292C109.204 12.4741 109.493 13.0222 109.738 13.5776C109.9 13.9657 110.08 14.3543 110.138 14.775C110.155 14.9551 110.172 15.1688 110.04 15.3118C109.956 15.3665 109.865 15.2983 109.803 15.2447C109.262 14.7079 108.993 13.9698 108.651 13.3009C108.472 12.9123 108.277 12.5247 108.177 12.1061C108.158 11.9874 108.123 11.8408 108.209 11.7407ZM71.9137 13.0671C72.8239 12.9025 73.7872 12.9097 74.6584 13.2524C75.4234 13.542 76.084 14.0705 76.5937 14.7094C77.2288 15.5063 77.6521 16.4555 77.9344 17.4325C78.2371 18.5051 78.3828 19.623 78.3675 20.7383C78.3112 21.7314 78.1803 22.7239 77.9196 23.6854C77.6731 24.5866 77.306 25.4666 76.7436 26.216C76.2486 26.8777 75.5906 27.4217 74.8292 27.7412C73.9672 28.1092 73.0028 28.1974 72.0789 28.0756C72.8832 27.9972 73.6803 27.735 74.3312 27.2426C75.0685 26.6924 75.5998 25.9038 75.9633 25.063C76.4347 23.9698 76.6704 22.7894 76.807 21.6106C76.9552 20.4627 76.9338 19.2973 76.7916 18.15C76.6674 17.2044 76.4388 16.2599 76.0022 15.4078C75.6279 14.6759 75.0772 14.0214 74.366 13.6044C73.6328 13.1605 72.7594 13.0119 71.9137 13.0671ZM41.4863 15.6204C41.9082 16.3512 42.3622 17.0749 42.9569 17.6787C43.303 18.024 43.7049 18.3208 44.1625 18.4973C44.6431 18.6893 45.1631 18.7373 45.6745 18.7745C51.8679 19.1543 58.0629 19.5084 64.2569 19.8738C64.6327 19.9089 65.0131 19.8898 65.3854 19.9564C62.4515 19.8909 59.5155 19.8635 56.5806 19.8093C52.8113 19.7551 49.0424 19.6906 45.2731 19.6359C44.7853 19.6152 44.2893 19.6607 43.8092 19.5569C43.0883 19.3938 42.5263 18.79 42.3034 18.0952C42.0345 17.2694 41.7425 16.4498 41.4863 15.6204ZM45.9291 20.7941C46.1469 20.7683 46.3632 20.7156 46.5836 20.7177C50.674 20.8803 54.765 21.0284 58.8565 21.1507C60.3382 21.1879 61.8195 21.2385 63.3023 21.2431C63.468 21.2462 63.6336 21.2622 63.7983 21.2844C63.2103 21.2684 62.6238 21.334 62.0368 21.3417C58.3191 21.494 54.5973 21.5038 50.877 21.4873C47.9452 21.4695 45.0135 21.4243 42.0825 21.3515C43.3633 21.1549 44.6472 20.9814 45.9291 20.7941ZM80.3058 21.2493C80.3401 21.16 80.4388 21.175 80.5155 21.175C82.7095 21.2813 84.9061 21.3763 87.1032 21.3247C87.4463 22.008 88.0337 22.5691 88.7511 22.8333C89.2178 23.0097 89.7153 23.0875 90.2129 23.062C94.1786 23.3149 98.1525 23.5234 102.128 23.4661C103.545 23.4124 104.959 23.3267 106.369 23.1956C107.466 23.0867 108.563 22.9562 109.642 22.726C110.106 22.6222 110.572 22.5082 111.012 22.3218C111.239 22.2202 111.48 22.1056 111.619 21.8857C111.846 22.1799 111.948 22.5453 112.051 22.8973C112.148 23.2297 112.084 23.6096 111.857 23.8749C111.528 24.263 111.043 24.4591 110.576 24.6186C109.601 24.9298 108.582 25.0651 107.57 25.1853C104.943 25.464 102.3 25.543 99.6604 25.6328C94.2027 25.8134 88.7347 25.6504 83.2944 25.1853C82.417 25.1053 81.5406 25.0238 80.6663 24.9195C80.5983 24.8999 80.4858 24.9107 80.4741 24.8173C80.4731 23.626 80.4169 22.4354 80.3058 21.2493Z" fill="#FF5722"/>
<path d="M76.4789 27.206C77.9581 25.9203 78.7169 23.943 78.8002 22.0044C78.9311 22.5397 78.9255 23.0966 78.9603 23.6442C78.9776 24.3719 79.0012 25.1028 78.9592 25.8305C78.9899 25.9807 79.1755 26.0215 79.3049 26.0504C79.9338 26.1469 80.5729 26.1381 81.2074 26.1882C81.0285 26.4891 80.7595 26.7198 80.5162 26.9649C80.1389 27.329 79.748 27.6783 79.3442 28.0122C78.882 28.3915 78.25 28.3652 77.6902 28.4369C76.4871 28.5226 75.2737 28.614 74.0701 28.502C74.9496 28.2434 75.7845 27.8135 76.4784 27.2065L76.4789 27.206ZM32.5918 23.0047C33.7064 23.0919 34.8165 23.2354 35.9306 23.3391C41.0778 23.867 46.2285 24.3592 51.3824 24.8158C54.8306 25.1146 58.2799 25.4 61.7343 25.6013C62.582 25.6354 63.4288 25.6999 64.277 25.7066C62.9077 25.7267 61.5385 25.6891 60.1697 25.6787C56.7021 25.6473 53.2344 25.6232 49.7666 25.6065C49.5181 25.6013 49.2696 25.6153 49.0222 25.5967C43.5445 24.7368 38.0699 23.8594 32.5918 23.0047ZM102.635 26.4658C103.708 26.4354 104.78 26.3864 105.849 26.295C105.665 26.6336 105.352 26.8731 105.066 27.1172C103.735 28.1634 102.108 28.8695 100.414 28.9686C99.3279 29.0298 98.2441 28.8167 97.2605 28.3487C96.3161 27.9048 95.4791 27.2514 94.7586 26.4973C97.3837 26.5298 100.01 26.5355 102.635 26.4658Z" fill="#FF5722"/>
</g>
<path d="M1.35723 46.5598C0.713042 46.5598 0.383789 46.2275 0.383789 45.5772V37.355C0.383789 36.7047 0.713042 36.3723 1.35723 36.3723H6.46781C6.96885 36.3723 7.21221 36.618 7.21221 37.0949C7.21221 37.6006 6.96885 37.8463 6.46781 37.8463H2.14458V40.6496H6.15287C6.65391 40.6496 6.89727 40.8953 6.89727 41.3866C6.89727 41.8779 6.65391 42.1236 6.15287 42.1236H2.14458V45.0859H6.46781C6.96885 45.0859 7.21221 45.3315 7.21221 45.8228C7.21221 46.3142 6.96885 46.5598 6.46781 46.5598H1.35723Z" fill="#FF5722"/>
<path d="M11.9783 46.5598C11.3628 46.5598 11.0479 46.2419 11.0479 45.6061V37.2683C11.0479 36.6469 11.3485 36.329 11.964 36.329C12.5796 36.329 12.8802 36.6469 12.8802 37.2683V44.9847H17.0317C17.5613 44.9847 17.8333 45.2448 17.8333 45.765C17.8333 46.2997 17.5613 46.5598 17.0317 46.5598H11.9783Z" fill="#FF5722"/>
<path d="M22.1281 46.6754C21.5125 46.6754 21.2119 46.3575 21.2119 45.7217V37.2104C21.2119 36.5746 21.5125 36.2567 22.1281 36.2567C22.7437 36.2567 23.0443 36.5746 23.0443 37.2104V45.7217C23.0443 46.3575 22.7437 46.6754 22.1281 46.6754Z" fill="#FF5722"/>
<path d="M30.7177 46.6754C30.1021 46.6754 29.8015 46.3575 29.8015 45.7217V37.9185H27.01C26.4803 37.9185 26.2227 37.6584 26.2227 37.1382C26.2227 36.6324 26.4803 36.3723 27.01 36.3723H34.4253C34.955 36.3723 35.2127 36.6324 35.2127 37.1382C35.2127 37.6584 34.955 37.9185 34.4253 37.9185H31.6339V45.7217C31.6339 46.3575 31.3332 46.6754 30.7177 46.6754Z" fill="#FF5722"/>
<path d="M39.3494 46.5598C38.7052 46.5598 38.376 46.2275 38.376 45.5772V37.355C38.376 36.7047 38.7052 36.3723 39.3494 36.3723H44.46C44.961 36.3723 45.2044 36.618 45.2044 37.0949C45.2044 37.6006 44.961 37.8463 44.46 37.8463H40.1368V40.6496H44.1451C44.6461 40.6496 44.8895 40.8953 44.8895 41.3866C44.8895 41.8779 44.6461 42.1236 44.1451 42.1236H40.1368V45.0859H44.46C44.961 45.0859 45.2044 45.3315 45.2044 45.8228C45.2044 46.3142 44.961 46.5598 44.46 46.5598H39.3494Z" fill="#FF5722"/>
<path d="M55.1388 46.6754C54.8095 46.6754 54.5662 46.5598 54.423 46.3286C54.2799 46.0974 54.2799 45.8228 54.4373 45.4905L58.2166 37.0371C58.3454 36.748 58.4886 36.5602 58.6604 36.4446C58.8372 36.3216 59.0469 36.2557 59.2616 36.2557C59.4764 36.2557 59.686 36.3216 59.8629 36.4446C60.07 36.5923 60.2293 36.7984 60.3209 37.0371L64.1145 45.4905C64.2577 45.8228 64.272 46.1119 64.1431 46.3431C64 46.5598 63.7853 46.6754 63.456 46.6754C63.2308 46.6883 63.0082 46.6219 62.8261 46.4876C62.6575 46.3141 62.526 46.1075 62.4396 45.8806L61.7238 44.2044H56.7994L56.0979 45.8806C56.0091 46.1063 55.8779 46.3124 55.7114 46.4876C55.5682 46.6176 55.3822 46.6754 55.1388 46.6754ZM59.2473 38.3809L57.4292 42.7305H61.094L59.2759 38.3809H59.2473Z" fill="#FF5722"/>
<path d="M68.7238 46.6743C68.1082 46.6743 67.8076 46.3564 67.8076 45.7206V37.3105C67.8076 36.6892 68.1226 36.3713 68.7381 36.3713H72.1881C73.1123 36.3098 74.0259 36.5983 74.7506 37.1805C75.0561 37.4629 75.2956 37.8104 75.4516 38.1978C75.6076 38.5852 75.6762 39.0028 75.6524 39.4203C75.6781 40.1006 75.4708 40.7691 75.0655 41.3133C74.6313 41.83 74.0354 42.1817 73.3763 42.3103C73.6396 42.4064 73.8815 42.5542 74.0879 42.7452C74.2943 42.9362 74.4611 43.1665 74.5788 43.423L75.6524 45.4316C75.8099 45.7351 75.8385 46.0241 75.7383 46.2842C75.6381 46.5443 75.3947 46.6743 75.0082 46.6743C74.7875 46.6838 74.5687 46.6286 74.3784 46.5154C74.1975 46.3776 74.0506 46.1996 73.9489 45.9952L72.503 43.3074C72.377 43.0264 72.1599 42.7971 71.8875 42.6572C71.6087 42.5314 71.3051 42.472 70.9999 42.4838H69.64V45.7206C69.64 46.3564 69.3394 46.6743 68.7238 46.6743ZM69.64 41.111H71.8732C73.2045 41.111 73.8773 40.5619 73.8773 39.4636C73.8773 38.3799 73.2045 37.8307 71.8732 37.8307H69.64V41.111Z" fill="#FF5722"/>
<path d="M80.6623 46.6743C80.0467 46.6743 79.7461 46.3564 79.7461 45.7206V37.3105C79.7461 36.6892 80.061 36.3713 80.6766 36.3713H84.1266C85.0507 36.3098 85.9644 36.5983 86.689 37.1805C86.9946 37.4629 87.234 37.8104 87.39 38.1978C87.546 38.5852 87.6146 39.0028 87.5909 39.4203C87.6166 40.1006 87.4093 40.7691 87.004 41.3133C86.5697 41.83 85.9738 42.1817 85.3148 42.3103C85.5781 42.4064 85.8199 42.5542 86.0263 42.7452C86.2327 42.9362 86.3996 43.1665 86.5173 43.423L87.5909 45.4316C87.7484 45.7351 87.777 46.0241 87.6768 46.2842C87.5766 46.5443 87.3332 46.6743 86.9467 46.6743C86.726 46.6838 86.5072 46.6286 86.3168 46.5154C86.136 46.3776 85.989 46.1996 85.8874 45.9952L84.4415 43.3074C84.3154 43.0264 84.0984 42.7971 83.826 42.6572C83.5472 42.5314 83.2435 42.472 82.9384 42.4838H81.5785V45.7206C81.5785 46.3564 81.2778 46.6743 80.6623 46.6743ZM81.5785 41.111H83.8117C85.143 41.111 85.8158 40.5619 85.8158 39.4636C85.8158 38.3799 85.143 37.8307 83.8117 37.8307H81.5785V41.111Z" fill="#FF5722"/>
<path d="M92.6008 46.6754C91.9852 46.6754 91.6846 46.3575 91.6846 45.7217V37.2104C91.6846 36.5746 91.9852 36.2567 92.6008 36.2567C93.2163 36.2567 93.5169 36.5746 93.5169 37.2104V45.7217C93.5169 46.3575 93.2163 46.6754 92.6008 46.6754Z" fill="#FF5722"/>
<path d="M101.854 46.6754C101.353 46.6754 101.01 46.4297 100.809 45.9529L97.0585 37.485C96.9154 37.1237 96.9154 36.8202 97.0585 36.6035C97.2446 36.3723 97.488 36.2567 97.8172 36.2567C98.0892 36.2567 98.2897 36.3145 98.4328 36.4445C98.6009 36.587 98.7292 36.7713 98.805 36.9792L101.883 44.1899L104.961 36.9648C105.043 36.7646 105.171 36.5866 105.333 36.4445C105.476 36.3145 105.676 36.2567 105.934 36.2567C106.069 36.249 106.203 36.277 106.323 36.3378C106.444 36.3987 106.547 36.4902 106.621 36.6035C106.779 36.8347 106.779 37.1237 106.621 37.485L102.885 45.9529C102.8 46.1673 102.662 46.3563 102.484 46.502C102.298 46.6271 102.077 46.688 101.854 46.6754Z" fill="#FF5722"/>
<path d="M110.267 46.6754C109.937 46.6754 109.694 46.5598 109.551 46.3286C109.408 46.0974 109.408 45.8228 109.565 45.4905L113.345 37.0371C113.473 36.748 113.617 36.5602 113.788 36.4446C113.965 36.3216 114.175 36.2557 114.39 36.2557C114.604 36.2557 114.814 36.3216 114.991 36.4446C115.198 36.5923 115.357 36.7984 115.449 37.0371L119.242 45.4905C119.386 45.8228 119.4 46.1119 119.271 46.3431C119.128 46.5598 118.913 46.6754 118.584 46.6754C118.359 46.6883 118.136 46.6219 117.954 46.4876C117.785 46.3141 117.654 46.1075 117.568 45.8806L116.852 44.2044H111.927L111.226 45.8806C111.137 46.1063 111.006 46.3124 110.839 46.4876C110.696 46.6176 110.51 46.6754 110.267 46.6754ZM114.375 38.3809L112.557 42.7305H116.222L114.404 38.3809H114.375Z" fill="#FF5722"/>
<path d="M123.866 46.5598C123.25 46.5598 122.936 46.2419 122.936 45.6061V37.2683C122.936 36.6469 123.236 36.329 123.852 36.329C124.467 36.329 124.768 36.6469 124.768 37.2683V44.9847H128.919C129.449 44.9847 129.721 45.2448 129.721 45.765C129.721 46.2997 129.449 46.5598 128.919 46.5598H123.866Z" fill="#FF5722"/>
</g>
</svg>
