<svg width="153" height="54" viewBox="0 0 153 54" fill="none" xmlns="http://www.w3.org/2000/svg">
<mask id="mask0_202_11" style="mask-type:luminance" maskUnits="userSpaceOnUse" x="19" y="0" width="113" height="34">
<path d="M19.6572 0H131.586V33.3982H19.6572V0Z" fill="white"/>
</mask>
<g mask="url(#mask0_202_11)">
<path d="M60.5291 0.293413C61.336 0.162227 62.1454 0.0117846 62.965 0.000350952C60.6025 0.365024 58.2652 0.941516 56.0333 1.80385C53.9723 2.60015 52.0339 3.68274 50.2749 5.01972C48.6405 6.24131 47.177 7.6675 45.6238 8.98658C43.8763 10.4368 41.9657 11.6813 39.9913 12.7988C35.756 15.1746 31.2295 16.9901 26.6217 18.5036C24.6347 19.1475 22.632 19.7426 20.6071 20.2559C20.308 20.3227 20.0149 20.4262 19.708 20.4449C20.8622 20.1639 21.9971 19.8022 23.1369 19.4658C27.9649 17.9818 32.7153 16.194 37.2003 13.8597C40.3656 12.2048 43.4009 10.2635 46.0619 7.8715C46.6962 7.32269 47.2679 6.70707 47.9106 6.16668C51.4658 3.08803 55.9171 1.12807 60.5297 0.293413H60.5291ZM71.728 0.668913C76.8491 0.333727 81.9888 0.730293 87.0611 1.447C88.3868 1.5487 89.6253 2.0578 90.8739 2.47242C94.786 3.81317 98.6566 5.2887 102.409 7.02902C99.2048 6.74258 95.9848 6.64811 92.7683 6.63968C88.9236 6.62283 85.0801 6.73476 81.2408 6.92431C80.3267 6.97486 79.4024 7.00375 78.4985 6.83646C77.7806 6.70347 77.0723 6.43026 76.5103 5.95426C74.9824 4.58584 73.5315 3.12293 71.8809 1.89833C71.5956 1.67327 71.2406 1.51922 71.036 1.20811C70.9571 1.104 70.9427 0.933691 71.0631 0.854257C71.2538 0.71585 71.5005 0.695997 71.728 0.669519V0.668913Z" fill="white"/>
<path d="M63.5318 1.59985C64.8376 1.46566 66.1778 1.52824 67.4433 1.90254C69.1258 2.38215 70.6447 3.351 71.8795 4.57921C72.9176 5.60282 73.7613 6.80817 74.4666 8.07971C69.4069 8.28431 64.3466 8.47207 59.2869 8.67968C58.5919 7.16803 57.694 5.7286 56.5097 4.55033C56.3148 4.34453 56.0452 4.18204 55.9585 3.89741C55.9429 3.67355 56.1902 3.57727 56.3557 3.49422C57.2114 3.13557 58.0906 2.83829 58.9764 2.56449C60.4628 2.11316 61.9828 1.7515 63.5318 1.59985ZM53.6291 4.75673C53.9624 4.59305 54.288 4.36258 54.6719 4.34753C54.9662 4.37822 55.1925 4.59546 55.4139 4.77238C56.0638 5.3573 56.5693 6.08062 57.0483 6.80576C57.3149 7.21857 57.5695 7.63982 57.8041 8.07249C57.8842 8.23015 57.975 8.42272 57.895 8.59784C57.7777 8.77776 57.5358 8.7567 57.3474 8.76212C55.9609 8.74406 54.5732 8.76813 53.1874 8.80906C51.8605 8.86803 50.5299 8.93963 49.2169 9.15326C48.7391 9.23631 48.2547 9.32658 47.8105 9.52757C48.8215 7.80229 50.4 6.47599 52.1355 5.51556C52.6205 5.23875 53.1284 5.00406 53.6291 4.75734V4.75673ZM85.8141 7.78243C88.8458 7.70901 91.877 7.63019 94.9063 7.48997C98.1745 7.37925 101.452 7.42558 104.71 7.72707C107.528 7.9738 110.341 8.27408 113.145 8.64356C114.624 8.84215 116.102 9.05638 117.566 9.34884C119.734 9.77008 121.927 10.1991 123.961 11.0904C124.574 11.3593 125.168 11.6714 125.737 12.0243C124.583 11.579 123.399 11.1999 122.183 10.9676C121.665 10.8623 121.14 10.8105 120.623 10.7076C120.036 10.6595 119.446 10.7125 118.859 10.7052C117.03 10.7197 115.197 10.7774 113.384 11.0254C113.148 11.0627 112.873 11.1054 112.726 11.316C112.595 11.523 112.694 11.7764 112.788 11.978C113.417 13.0852 113.979 14.2274 114.563 15.3587C114.963 16.1561 115.38 16.9456 115.767 17.749C114.179 15.2215 111.99 13.0792 109.453 11.5086C109.021 11.2387 108.574 10.9928 108.115 10.772C107.489 10.4838 106.811 10.3267 106.132 10.2184C104.826 10.0499 103.539 9.77189 102.241 9.55766C96.0514 8.4853 89.7756 7.85705 83.4919 7.84742C84.2652 7.79326 85.0396 7.8053 85.8147 7.78243H85.8141Z" fill="white"/>
<path d="M101.265 11.2137C102.246 11.4195 103.234 11.7758 103.986 12.4594C104.427 12.8486 104.74 13.3619 104.884 13.9319C104.976 14.305 104.928 14.7233 104.697 15.038C104.417 15.4231 103.971 15.6458 103.529 15.7902C103.934 15.4809 104.352 15.1319 104.522 14.6336C104.686 14.1678 104.533 13.6545 104.248 13.2706C103.802 12.6628 103.169 12.2241 102.529 11.8438C102.122 11.607 101.7 11.3967 101.265 11.2143L101.265 11.2137ZM120.116 11.2107C120.388 11.173 120.664 11.1669 120.938 11.1927C122.232 11.4538 123.54 11.6783 124.797 12.0911C125.165 12.2127 125.533 12.3601 125.833 12.611C126.233 12.9264 126.49 13.3855 126.655 13.8609C126.945 14.713 127.25 15.5627 127.459 16.4395C127.545 16.8138 127.641 17.2314 127.446 17.5889C127.334 17.8188 127.067 17.9319 126.821 17.9156C124.35 17.7285 121.871 17.631 119.393 17.5907C118.759 17.5648 118.102 17.6515 117.491 17.4402C116.804 17.2044 116.303 16.6369 115.899 16.0592C115.237 15.0958 114.645 14.0854 114.094 13.0551C113.924 12.7073 113.765 12.3084 113.864 11.9166C113.942 11.6302 114.25 11.502 114.522 11.4833C116.381 11.301 118.251 11.3028 120.115 11.2107H120.116Z" fill="white"/>
<path d="M99.7318 11.2751C100.699 11.1975 101.615 11.6356 102.425 12.1176C102.943 12.4323 103.444 12.803 103.794 13.3049C104.078 13.7123 104.225 14.2298 104.133 14.7239C103.999 15.1692 103.593 15.4761 103.161 15.6054C102.609 15.7679 102.017 15.7451 101.458 15.6385C100.134 15.3822 98.9887 14.4212 98.4519 13.193C98.2852 12.8241 98.2599 12.3601 98.5265 12.0315C98.8298 11.6626 99.2366 11.319 99.7324 11.2751H99.7318ZM106.049 11.3004C107.007 11.1379 107.966 11.5128 108.745 12.0502C109.242 12.3908 109.683 12.8066 110.091 13.2477C110.464 13.6316 110.703 14.1323 110.834 14.6468C110.925 15.0608 110.931 15.5411 110.659 15.8925C110.338 16.2969 109.784 16.4281 109.29 16.4172C108.626 16.3501 107.983 16.1447 107.404 15.814C106.824 15.4834 106.32 15.0349 105.925 14.4976C105.641 14.1095 105.41 13.6853 105.239 13.2363C105.098 12.8253 105.061 12.3589 105.234 11.9521C105.376 11.6175 105.691 11.3654 106.049 11.3004Z" fill="white"/>
<path d="M108.272 11.4448C109.116 11.9021 109.959 12.383 110.684 13.0196C111.049 13.3506 111.4 13.7213 111.593 14.1823C111.742 14.5265 111.759 14.9405 111.587 15.2793C111.456 15.5579 111.224 15.7691 110.985 15.9551C111.11 15.73 111.187 15.4816 111.212 15.2254C111.237 14.9692 111.209 14.7106 111.129 14.4657C110.877 13.6816 110.3 13.0575 109.702 12.5153C109.26 12.1134 108.76 11.7842 108.272 11.4442V11.4448ZM126.902 13.2375L126.999 13.1857C127.233 13.2357 127.414 13.4126 127.582 13.5739C128.073 14.0926 128.413 14.7317 128.702 15.3792C128.892 15.8317 129.104 16.2848 129.172 16.7753C129.193 16.9853 129.213 17.2344 129.057 17.4011C128.959 17.4649 128.851 17.3855 128.779 17.3229C128.142 16.697 127.825 15.8365 127.423 15.0566C127.212 14.6035 126.982 14.1516 126.864 13.6635C126.843 13.5251 126.801 13.3542 126.902 13.2375ZM84.1857 14.784C85.2569 14.5921 86.3906 14.6005 87.416 15.0001C88.3163 15.3376 89.0938 15.9539 89.6937 16.6989C90.4411 17.628 90.9394 18.7346 91.2716 19.8738C91.6278 21.1243 91.7993 22.4277 91.7813 23.7281C91.7151 24.8859 91.561 26.0431 91.2541 27.1642C90.9641 28.2149 90.532 29.2409 89.87 30.1147C89.2875 30.8862 88.5131 31.5204 87.617 31.8929C86.6024 32.322 85.4675 32.4249 84.3801 32.2829C85.3267 32.1914 86.2648 31.8857 87.0309 31.3116C87.8986 30.6701 88.5239 29.7506 88.9517 28.7704C89.5066 27.4958 89.784 26.1196 89.9447 24.7451C90.1192 23.4068 90.0939 22.048 89.9266 20.7102C89.7804 19.6078 89.5114 18.5066 88.9975 17.5131C88.557 16.6597 87.9089 15.8967 87.0718 15.4105C86.2089 14.8929 85.1811 14.7196 84.1857 14.784ZM48.375 17.761C48.8715 18.6131 49.4058 19.4568 50.1057 20.1608C50.5131 20.5634 50.9861 20.9094 51.5247 21.1152C52.0903 21.3391 52.7023 21.3951 53.3041 21.4384C60.5933 21.8813 67.8844 22.2941 75.1742 22.7202C75.6165 22.7611 76.0642 22.7388 76.5023 22.8164C73.0494 22.74 69.594 22.7081 66.1398 22.6449C61.7036 22.5818 57.268 22.5065 52.8317 22.4427C52.2576 22.4187 51.6739 22.4716 51.1088 22.3507C50.2603 22.1605 49.599 21.4564 49.3366 20.6465C49.0201 19.6836 48.6765 18.728 48.375 17.761ZM53.6038 23.7931C53.8601 23.763 54.1147 23.7017 54.3741 23.7041C59.1882 23.8936 64.003 24.0663 68.8183 24.2089C70.5623 24.2523 72.3056 24.3112 74.0507 24.3167C74.2457 24.3203 74.4407 24.3389 74.6344 24.3648C73.9424 24.3461 73.2522 24.4226 72.5613 24.4316C68.1859 24.6091 63.8056 24.6206 59.4271 24.6013C55.9765 24.5806 52.5262 24.5279 49.0767 24.443C50.5841 24.2138 52.0951 24.0116 53.6038 23.7931ZM94.0626 24.3239C94.1029 24.2198 94.219 24.2372 94.3093 24.2372C96.8915 24.3612 99.4767 24.4719 102.063 24.4117C102.466 25.2085 103.158 25.8626 104.002 26.1707C104.551 26.3764 105.137 26.4671 105.722 26.4373C110.39 26.7322 115.067 26.9753 119.746 26.9085C121.413 26.8459 123.077 26.746 124.737 26.5932C126.028 26.4662 127.319 26.3139 128.589 26.0455C129.135 25.9246 129.683 25.7916 130.201 25.5744C130.469 25.4558 130.752 25.3222 130.916 25.0659C131.183 25.4089 131.303 25.8349 131.425 26.2453C131.538 26.6329 131.463 27.0758 131.196 27.3851C130.809 27.8376 130.237 28.0663 129.688 28.2522C128.541 28.6151 127.341 28.7728 126.151 28.913C123.059 29.2379 119.948 29.33 116.841 29.4347C110.418 29.6453 103.983 29.4552 97.5799 28.913C96.5473 28.8197 95.5158 28.7246 94.4868 28.6031C94.4068 28.5802 94.2744 28.5928 94.2606 28.4839C94.2594 27.0949 94.1933 25.7067 94.0626 24.3239Z" fill="white"/>
<path d="M89.558 31.2689C91.2989 29.7699 92.1919 27.4645 92.29 25.2043C92.4441 25.8283 92.4374 26.4776 92.4784 27.1161C92.4988 27.9646 92.5265 28.8167 92.4771 29.6652C92.5132 29.8403 92.7317 29.8878 92.8839 29.9215C93.6241 30.0341 94.3763 30.0238 95.1231 30.0822C94.9125 30.433 94.596 30.702 94.3095 30.9879C93.8656 31.4124 93.4055 31.8197 92.9303 32.2089C92.3863 32.6512 91.6425 32.6205 90.9836 32.7041C89.5676 32.804 88.1396 32.9105 86.723 32.78C87.7581 32.4785 88.7408 31.9772 89.5574 31.2695L89.558 31.2689ZM37.9062 26.3705C39.2181 26.4722 40.5246 26.6395 41.8358 26.7604C47.8936 27.3759 53.9556 27.9498 60.0213 28.4821C64.0796 28.8305 68.1392 29.1633 72.2047 29.398C73.2025 29.4377 74.199 29.5129 75.1973 29.5208C73.5858 29.5442 71.9743 29.5003 70.3633 29.4883C66.2822 29.4516 62.201 29.4235 58.1197 29.404C57.8272 29.398 57.5348 29.4143 57.2435 29.3926C50.7968 28.39 44.3536 27.367 37.9062 26.3705ZM120.342 30.406C121.604 30.3705 122.866 30.3133 124.124 30.2068C123.908 30.6015 123.54 30.8808 123.202 31.1654C121.636 32.3852 119.722 33.2084 117.727 33.3239C116.45 33.3953 115.174 33.1469 114.016 32.6012C112.905 32.0837 111.92 31.3219 111.072 30.4427C114.161 30.4806 117.252 30.4872 120.342 30.406Z" fill="white"/>
</g>
<path d="M1.14567 53.8341C0.387505 53.8341 0 53.4466 0 52.6885V43.1019C0 42.3438 0.387505 41.9563 1.14567 41.9563H7.16042C7.75011 41.9563 8.03652 42.2427 8.03652 42.7987C8.03652 43.3883 7.75011 43.6748 7.16042 43.6748H2.07231V46.9433H6.78977C7.37945 46.9433 7.66587 47.2297 7.66587 47.8025C7.66587 48.3754 7.37945 48.6618 6.78977 48.6618H2.07231V52.1156H7.16042C7.75011 52.1156 8.03652 52.4021 8.03652 52.9749C8.03652 53.5477 7.75011 53.8341 7.16042 53.8341H1.14567Z" fill="white"/>
<path d="M13.6459 53.8341C12.9214 53.8341 12.5508 53.4635 12.5508 52.7222V43.0008C12.5508 42.2764 12.9046 41.9057 13.6291 41.9057C14.3535 41.9057 14.7073 42.2764 14.7073 43.0008V51.9977H19.5933C20.2166 51.9977 20.5368 52.301 20.5368 52.9075C20.5368 53.5309 20.2166 53.8341 19.5933 53.8341H13.6459Z" fill="white"/>
<path d="M25.591 53.9689C24.8665 53.9689 24.5127 53.5982 24.5127 52.8569V42.9334C24.5127 42.1921 24.8665 41.8214 25.591 41.8214C26.3154 41.8214 26.6692 42.1921 26.6692 42.9334V52.8569C26.6692 53.5982 26.3154 53.9689 25.591 53.9689Z" fill="white"/>
<path d="M35.7004 53.9689C34.976 53.9689 34.6222 53.5982 34.6222 52.8569V43.759H31.3368C30.7134 43.759 30.4102 43.4557 30.4102 42.8492C30.4102 42.2595 30.7134 41.9562 31.3368 41.9562H40.0641C40.6875 41.9562 40.9907 42.2595 40.9907 42.8492C40.9907 43.4557 40.6875 43.759 40.0641 43.759H36.7787V52.8569C36.7787 53.5982 36.4249 53.9689 35.7004 53.9689Z" fill="white"/>
<path d="M45.8595 53.8341C45.1014 53.8341 44.7139 53.4466 44.7139 52.6885V43.1019C44.7139 42.3438 45.1014 41.9563 45.8595 41.9563H51.8743C52.464 41.9563 52.7504 42.2427 52.7504 42.7987C52.7504 43.3883 52.464 43.6748 51.8743 43.6748H46.7862V46.9433H51.5036C52.0933 46.9433 52.3797 47.2297 52.3797 47.8025C52.3797 48.3754 52.0933 48.6618 51.5036 48.6618H46.7862V52.1156H51.8743C52.464 52.1156 52.7504 52.4021 52.7504 52.9749C52.7504 53.5477 52.464 53.8341 51.8743 53.8341H45.8595Z" fill="white"/>
<path d="M64.4433 53.9689C64.0558 53.9689 63.7694 53.8341 63.6009 53.5646C63.4324 53.295 63.4324 52.9749 63.6177 52.5874L68.0656 42.7313C68.2173 42.3943 68.3857 42.1753 68.5879 42.0405C68.796 41.897 69.0428 41.8202 69.2955 41.8202C69.5483 41.8202 69.7951 41.897 70.0032 42.0405C70.2469 42.2127 70.4345 42.453 70.5423 42.7313L75.007 52.5874C75.1755 52.9749 75.1924 53.3118 75.0407 53.5814C74.8722 53.8341 74.6195 53.9689 74.232 53.9689C73.967 53.984 73.705 53.9066 73.4907 53.7499C73.2923 53.5476 73.1375 53.3068 73.0358 53.0423L72.1934 51.0879H66.3977L65.5721 53.0423C65.4676 53.3053 65.3131 53.5456 65.1172 53.7499C64.9487 53.9015 64.7297 53.9689 64.4433 53.9689ZM69.2787 44.2981L67.139 49.3694H71.4521L69.3124 44.2981H69.2787Z" fill="white"/>
<path d="M80.4308 53.9677C79.7063 53.9677 79.3525 53.597 79.3525 52.8557V43.0501C79.3525 42.3257 79.7232 41.955 80.4477 41.955H84.508C85.5957 41.8833 86.671 42.2197 87.5238 42.8985C87.8835 43.2278 88.1653 43.6329 88.3489 44.0846C88.5325 44.5363 88.6132 45.0232 88.5853 45.51C88.6155 46.3032 88.3715 47.0826 87.8945 47.717C87.3834 48.3195 86.6821 48.7296 85.9064 48.8796C86.2163 48.9916 86.501 49.1639 86.7439 49.3865C86.9868 49.6092 87.1832 49.8778 87.3217 50.1769L88.5853 52.5187C88.7706 52.8726 88.8043 53.2095 88.6864 53.5128C88.5684 53.816 88.282 53.9677 87.8271 53.9677C87.5673 53.9787 87.3098 53.9143 87.0858 53.7823C86.8729 53.6217 86.7 53.4141 86.5804 53.1758L84.8787 50.0421C84.7303 49.7144 84.4748 49.447 84.1542 49.2839C83.8262 49.1373 83.4687 49.0681 83.1097 49.0817H81.5091V52.8557C81.5091 53.597 81.1553 53.9677 80.4308 53.9677ZM81.5091 47.4812H84.1374C85.7043 47.4812 86.4961 46.8409 86.4961 45.5605C86.4961 44.2969 85.7043 43.6567 84.1374 43.6567H81.5091V47.4812Z" fill="white"/>
<path d="M94.4816 53.9677C93.7571 53.9677 93.4033 53.597 93.4033 52.8557V43.0501C93.4033 42.3257 93.774 41.955 94.4984 41.955H98.5588C99.6465 41.8833 100.722 42.2197 101.575 42.8985C101.934 43.2278 102.216 43.6329 102.4 44.0846C102.583 44.5363 102.664 45.0232 102.636 45.51C102.666 46.3032 102.422 47.0826 101.945 47.717C101.434 48.3195 100.733 48.7296 99.9572 48.8796C100.267 48.9916 100.552 49.1639 100.795 49.3865C101.038 49.6092 101.234 49.8778 101.372 50.1769L102.636 52.5187C102.821 52.8726 102.855 53.2095 102.737 53.5128C102.619 53.816 102.333 53.9677 101.878 53.9677C101.618 53.9787 101.361 53.9143 101.137 53.7823C100.924 53.6217 100.751 53.4141 100.631 53.1758L98.9295 50.0421C98.7811 49.7144 98.5256 49.447 98.205 49.2839C97.8769 49.1373 97.5195 49.0681 97.1604 49.0817H95.5599V52.8557C95.5599 53.597 95.2061 53.9677 94.4816 53.9677ZM95.5599 47.4812H98.1882C99.755 47.4812 100.547 46.8409 100.547 45.5605C100.547 44.2969 99.755 43.6567 98.1882 43.6567H95.5599V47.4812Z" fill="white"/>
<path d="M108.532 53.9689C107.808 53.9689 107.454 53.5982 107.454 52.8569V42.9334C107.454 42.1921 107.808 41.8214 108.532 41.8214C109.257 41.8214 109.611 42.1921 109.611 42.9334V52.8569C109.611 53.5982 109.257 53.9689 108.532 53.9689Z" fill="white"/>
<path d="M119.423 53.9689C118.833 53.9689 118.429 53.6824 118.193 53.1265L113.779 43.2535C113.61 42.8323 113.61 42.4785 113.779 42.2258C113.998 41.9562 114.284 41.8214 114.672 41.8214C114.992 41.8214 115.228 41.8888 115.396 42.0404C115.594 42.2065 115.745 42.4214 115.834 42.6638L119.456 51.071L123.079 42.647C123.176 42.4136 123.326 42.206 123.517 42.0404C123.685 41.8888 123.921 41.8214 124.224 41.8214C124.383 41.8125 124.541 41.8451 124.683 41.916C124.824 41.9869 124.945 42.0937 125.033 42.2258C125.219 42.4953 125.219 42.8323 125.033 43.2535L120.636 53.1265C120.536 53.3765 120.373 53.5969 120.164 53.7667C119.945 53.9126 119.685 53.9836 119.423 53.9689Z" fill="white"/>
<path d="M129.323 53.9689C128.936 53.9689 128.649 53.8341 128.481 53.5646C128.312 53.295 128.312 52.9749 128.498 52.5874L132.946 42.7313C133.097 42.3943 133.266 42.1753 133.468 42.0405C133.676 41.897 133.923 41.8202 134.175 41.8202C134.428 41.8202 134.675 41.897 134.883 42.0405C135.127 42.2127 135.314 42.453 135.422 42.7313L139.887 52.5874C140.055 52.9749 140.072 53.3118 139.921 53.5814C139.752 53.8341 139.499 53.9689 139.112 53.9689C138.847 53.984 138.585 53.9066 138.371 53.7499C138.172 53.5476 138.017 53.3068 137.916 53.0423L137.073 51.0879H131.278L130.452 53.0423C130.348 53.3053 130.193 53.5456 129.997 53.7499C129.829 53.9015 129.61 53.9689 129.323 53.9689ZM134.159 44.2981L132.019 49.3694H136.332L134.192 44.2981H134.159Z" fill="white"/>
<path d="M145.329 53.8341C144.604 53.8341 144.233 53.4635 144.233 52.7222V43.0008C144.233 42.2764 144.587 41.9057 145.312 41.9057C146.036 41.9057 146.39 42.2764 146.39 43.0008V51.9977H151.276C151.899 51.9977 152.219 52.301 152.219 52.9075C152.219 53.5309 151.899 53.8341 151.276 53.8341H145.329Z" fill="white"/>
</svg>
